HIERARCHY
ROOT Hip
{
	OFFSET	0.0000	0.0000	0.0000
	CHANNELS 6 Xposition Yposition Zposition Xrotation Yrotation Zrotation
	JOINT LowerSpine
	{
		OFFSET	0.0000	9.4957	-5.1386
		CHANNELS 3 Xrotation Yrotation Zrotation
		JOINT MiddleSpine
		{
			OFFSET	0.0000	8.6656	0.4527
			CHANNELS 3 Xrotation Yrotation Zrotation
			JOINT Chest
			{
				OFFSET	0.0000	10.7227	-2.3868
				CHANNELS 3 Xrotation Yrotation Zrotation
				JOINT Neck
				{
					OFFSET	0.0000	24.1631	-0.5025
					CHANNELS 3 Xrotation Yrotation Zrotation
					JOINT Head
					{
						OFFSET	0.0000	13.6452	3.7115
						CHANNELS 3 Xrotation Yrotation Zrotation
						End Site
						{
							OFFSET	0.0001	19.0659	0.5692
						}
					}
				}
				JOINT LClavicle
				{
					OFFSET	2.4395	23.3186	7.9891
					CHANNELS 3 Xrotation Yrotation Zrotation
					JOINT LShoulder
					{
						OFFSET	14.2517	3.3448	-5.4121
						CHANNELS 3 Xrotation Yrotation Zrotation
						JOINT LForearm
						{
							OFFSET	30.2735	-0.1075	-0.2623
							CHANNELS 3 Xrotation Yrotation Zrotation
							JOINT LHand
							{
								OFFSET	25.2545	0.0733	-0.1512
								CHANNELS 3 Xrotation Yrotation Zrotation
								JOINT LFinger1
								{
									OFFSET	9.7879	0.8560	2.7185
									CHANNELS 3 Xrotation Yrotation Zrotation
									JOINT LFinger11
									{
										OFFSET	3.6612	-0.8928	0.6451
										CHANNELS 3 Xrotation Yrotation Zrotation
										JOINT LFinger12
										{
											OFFSET	2.4994	-0.6097	0.4406
											CHANNELS 3 Xrotation Yrotation Zrotation
											End Site
											{
												OFFSET	1.7786	-0.5309	0.2885
											}
										}
									}
								}
								JOINT LFinger2
								{
									OFFSET	9.9340	0.9885	0.2367
									CHANNELS 3 Xrotation Yrotation Zrotation
									JOINT LFinger21
									{
										OFFSET	4.5268	0.0126	-0.0267
										CHANNELS 3 Xrotation Yrotation Zrotation
										JOINT LFinger22
										{
											OFFSET	2.5091	0.0076	-0.0153
											CHANNELS 3 Xrotation Yrotation Zrotation
											End Site
											{
												OFFSET	2.2537	-0.1591	0.0030
											}
										}
									}
								}
								JOINT LFinger3
								{
									OFFSET	9.4145	0.6596	-2.2272
									CHANNELS 3 Xrotation Yrotation Zrotation
									JOINT LFinger31
									{
										OFFSET	4.1076	-0.2080	-0.2572
										CHANNELS 3 Xrotation Yrotation Zrotation
										JOINT LFinger32
										{
											OFFSET	2.3407	-0.1177	-0.1471
											CHANNELS 3 Xrotation Yrotation Zrotation
											End Site
											{
												OFFSET	2.0696	-0.2545	-0.0978
											}
										}
									}
								}
								JOINT LFinger4
								{
									OFFSET	8.7363	-0.6640	-3.8466
									CHANNELS 3 Xrotation Yrotation Zrotation
									JOINT LFinger41
									{
										OFFSET	2.5266	-0.5269	-0.6974
										CHANNELS 3 Xrotation Yrotation Zrotation
										JOINT LFinger42
										{
											OFFSET	1.8527	-0.3859	-0.5118
											CHANNELS 3 Xrotation Yrotation Zrotation
											End Site
											{
												OFFSET	1.6445	-0.4518	-0.3773
											}
										}
									}
								}
								JOINT LFinger0
								{
									OFFSET	2.0247	-1.5325	1.5349
									CHANNELS 3 Xrotation Yrotation Zrotation
									JOINT LFinger01
									{
										OFFSET	3.7698	-1.2382	2.8423
										CHANNELS 3 Xrotation Yrotation Zrotation
										JOINT LFinger02
										{
											OFFSET	2.4824	-0.8882	1.7885
											CHANNELS 3 Xrotation Yrotation Zrotation
											End Site
											{
												OFFSET	1.8254	-0.6284	1.2500
											}
										}
									}
								}
							}
						}
					}
				}
				JOINT RClavicle
				{
					OFFSET	-2.4395	23.3186	7.9891
					CHANNELS 3 Xrotation Yrotation Zrotation
					JOINT RShoulder
					{
						OFFSET	-14.2542	3.3453	-5.4130
						CHANNELS 3 Xrotation Yrotation Zrotation
						JOINT RForearm
						{
							OFFSET	-30.2735	-0.1075	-0.2623
							CHANNELS 3 Xrotation Yrotation Zrotation
							JOINT RHand
							{
								OFFSET	-25.2545	0.0733	-0.1512
								CHANNELS 3 Xrotation Yrotation Zrotation
								JOINT RFinger1
								{
									OFFSET	-9.7879	0.8560	2.7185
									CHANNELS 3 Xrotation Yrotation Zrotation
									JOINT RFinger11
									{
										OFFSET	-3.6612	-0.8928	0.6451
										CHANNELS 3 Xrotation Yrotation Zrotation
										JOINT RFinger12
										{
											OFFSET	-2.4994	-0.6097	0.4406
											CHANNELS 3 Xrotation Yrotation Zrotation
											End Site
											{
												OFFSET	-1.7786	-0.5309	0.2885
											}
										}
									}
								}
								JOINT RFinger2
								{
									OFFSET	-9.9340	0.9885	0.2367
									CHANNELS 3 Xrotation Yrotation Zrotation
									JOINT RFinger21
									{
										OFFSET	-4.5268	0.0126	-0.0267
										CHANNELS 3 Xrotation Yrotation Zrotation
										JOINT RFinger22
										{
											OFFSET	-2.5091	0.0076	-0.0153
											CHANNELS 3 Xrotation Yrotation Zrotation
											End Site
											{
												OFFSET	-2.2537	-0.1591	0.0030
											}
										}
									}
								}
								JOINT RFinger3
								{
									OFFSET	-9.4145	0.6596	-2.2272
									CHANNELS 3 Xrotation Yrotation Zrotation
									JOINT RFinger31
									{
										OFFSET	-4.1076	-0.2080	-0.2572
										CHANNELS 3 Xrotation Yrotation Zrotation
										JOINT RFinger32
										{
											OFFSET	-2.3407	-0.1177	-0.1471
											CHANNELS 3 Xrotation Yrotation Zrotation
											End Site
											{
												OFFSET	-2.0696	-0.2544	-0.0978
											}
										}
									}
								}
								JOINT RFinger4
								{
									OFFSET	-8.7363	-0.6639	-3.8466
									CHANNELS 3 Xrotation Yrotation Zrotation
									JOINT RFinger41
									{
										OFFSET	-2.5266	-0.5269	-0.6974
										CHANNELS 3 Xrotation Yrotation Zrotation
										JOINT RFinger42
										{
											OFFSET	-1.8527	-0.3859	-0.5118
											CHANNELS 3 Xrotation Yrotation Zrotation
											End Site
											{
												OFFSET	-1.6445	-0.4518	-0.3773
											}
										}
									}
								}
								JOINT RFinger0
								{
									OFFSET	-2.0247	-1.5325	1.5349
									CHANNELS 3 Xrotation Yrotation Zrotation
									JOINT RFinger01
									{
										OFFSET	-3.7698	-1.2382	2.8423
										CHANNELS 3 Xrotation Yrotation Zrotation
										JOINT RFinger02
										{
											OFFSET	-2.4824	-0.8882	1.7885
											CHANNELS 3 Xrotation Yrotation Zrotation
											End Site
											{
												OFFSET	-1.8254	-0.6284	1.2500
											}
										}
									}
								}
							}
						}
					}
				}
			}
		}
	}
	JOINT RThigh
	{
		OFFSET	-10.1581	4.2924	-0.8373
		CHANNELS 3 Xrotation Yrotation Zrotation
		JOINT RShin
		{
			OFFSET	-0.8128	-44.1831	0.0000
			CHANNELS 3 Xrotation Yrotation Zrotation
			JOINT RFoot
			{
				OFFSET	0.0000	-43.3851	0.0000
				CHANNELS 3 Xrotation Yrotation Zrotation
				JOINT RToe
				{
					OFFSET	0.0000	-4.7684	9.9714
					CHANNELS 3 Xrotation Yrotation Zrotation
					End Site
					{
						OFFSET	0.0000	0.0000	6.6894
					}
				}
			}
		}
	}
	JOINT LThigh
	{
		OFFSET	10.1580	4.2927	-0.8373
		CHANNELS 3 Xrotation Yrotation Zrotation
		JOINT LShin
		{
			OFFSET	0.8129	-44.1834	0.0000
			CHANNELS 3 Xrotation Yrotation Zrotation
			JOINT LFoot
			{
				OFFSET	0.0000	-43.3851	0.0000
				CHANNELS 3 Xrotation Yrotation Zrotation
				JOINT LToe
				{
					OFFSET	0.0000	-4.7684	9.9714
					CHANNELS 3 Xrotation Yrotation Zrotation
					End Site
					{
						OFFSET	0.0000	0.0000	6.6894
					}
				}
			}
		}
	}
}
MOTION
Frames:	6
Frame Time: 0.0333333000
	0.0000	90.5209	2.8200	0.000000	0.000000	0.000000	0.000000	0.000000	0.000000	0.000000	0.000000	0.000000	0.000000	0.000000	0.000000	0.000000	0.000000	0.000000	0.000000	0.000000	0.000000	0.000000	0.000000	0.000000	0.000000	0.000000	0.000000	0.000000	0.000000	0.000000	0.000000	0.000000	0.000000	0.000000	0.000000	0.000000	0.000000	0.000000	0.000000	0.000000	0.000000	0.000000	0.000000	0.000000	0.000000	0.000000	0.000000	0.000000	0.000000	0.000000	0.000000	0.000000	0.000000	0.000000	0.000000	0.000000	0.000000	0.000000	0.000000	0.000000	0.000000	0.000000	0.000000	0.000000	0.000000	0.000000	0.000000	0.000000	0.000000	0.000000	0.000000	0.000000	0.000000	0.000000	0.000000	0.000000	0.000000	0.000000	0.000000	0.000000	0.000000	0.000000	0.000000	0.000000	0.000000	0.000000	0.000000	0.000000	0.000000	0.000000	0.000000	0.000000	0.000000	0.000000	0.000000	0.000000	0.000000	0.000000	0.000000	0.000000	0.000000	0.000000	0.000000	0.000000	0.000000	0.000000	0.000000	0.000000	0.000000	0.000000	0.000000	0.000000	0.000000	0.000000	0.000000	0.000000	0.000000	0.000000	0.000000	0.000000	0.000000	0.000000	0.000000	0.000000	0.000000	0.000000	0.000000	0.000000	0.000000	0.000000	0.000000	0.000000	0.000000	0.000000	0.000000	0.000000	0.000000	0.000000	0.000000	0.000000	0.000000	0.000000	0.000000	0.000000	0.000000	0.000000	0.000000	0.000000	0.000000	0.000000	0.000000	0.000000	0.000000	0.000000	0.000000	0.000000	0.000000	0.000000	0.000000
	-11.1552	90.4663	83.3444	-4.991375	-0.309662	1.854329	0.000000	0.000000	0.000000	0.612352	0.626251	0.032410	2.042387	2.092630	0.072194	0.000000	0.000000	0.000000	0.000000	0.000000	0.000000	0.000000	0.000000	-3.766509	-1.062765	-8.082006	-14.956230	-11.087090	-15.184030	11.503400	0.000000	0.000000	0.000000	0.000000	0.000000	0.000000	0.000000	0.000000	0.000000	0.000000	0.000000	0.000000	0.000000	0.000000	0.000000	0.000000	0.000000	0.000000	0.000000	0.000000	0.000000	0.000000	0.000000	0.000000	0.000000	0.000000	0.000000	0.000000	0.000000	0.000000	0.000000	0.000000	0.000000	0.000000	0.000000	0.000000	0.000000	0.000000	0.000000	0.000000	0.000000	0.000000	0.000000	0.000000	0.000000	0.000000	0.000000	0.000000	0.000000	0.000000	2.544860	-0.414674	4.771034	9.922827	-11.947350	11.071790	-13.246210	0.000000	0.000000	0.000000	0.000000	0.000000	0.000000	0.000000	0.000000	0.000000	0.000000	0.000000	0.000000	0.000000	0.000000	0.000000	0.000000	0.000000	0.000000	0.000000	0.000000	0.000000	0.000000	0.000000	0.000000	0.000000	0.000000	0.000000	0.000000	0.000000	0.000000	0.000000	0.000000	0.000000	0.000000	0.000000	0.000000	0.000000	0.000000	0.000000	0.000000	0.000000	0.000000	0.000000	0.000000	0.000000	0.000000	0.000000	0.000000	6.315401	-2.141129	-4.132140	7.579996	-1.921389	0.224210	-7.734760	-3.751631	-2.116265	0.000000	0.000000	0.000000	5.833709	-0.176427	-5.676001	4.271634	0.123351	3.306468	-2.891877	1.883312	0.959401	0.000000	0.000000	0.000000
	-11.1804	90.6146	83.7248	-6.617712	-0.970223	1.278668	0.000000	0.000000	0.000000	1.205169	0.734821	0.183115	4.009673	2.463189	0.550314	0.000000	0.000000	0.000000	0.000000	0.000000	0.000000	0.000000	0.000000	-3.778349	-1.752439	-8.129332	-15.038750	-11.195490	-15.260540	11.451090	0.000000	0.000000	0.000000	0.000000	0.000000	0.000000	0.000000	0.000000	0.000000	0.000000	0.000000	0.000000	0.000000	0.000000	0.000000	0.000000	0.000000	0.000000	0.000000	0.000000	0.000000	0.000000	0.000000	0.000000	0.000000	0.000000	0.000000	0.000000	0.000000	0.000000	0.000000	0.000000	0.000000	0.000000	0.000000	0.000000	0.000000	0.000000	0.000000	0.000000	0.000000	0.000000	0.000000	0.000000	0.000000	0.000000	0.000000	0.000000	0.000000	0.000000	2.523204	-1.054469	4.484543	9.887088	-11.992420	12.177690	-13.123510	0.000000	0.000000	0.000000	0.000000	0.000000	0.000000	0.000000	0.000000	0.000000	0.000000	0.000000	0.000000	0.000000	0.000000	0.000000	0.000000	0.000000	0.000000	0.000000	0.000000	0.000000	0.000000	0.000000	0.000000	0.000000	0.000000	0.000000	0.000000	0.000000	0.000000	0.000000	0.000000	0.000000	0.000000	0.000000	0.000000	0.000000	0.000000	0.000000	0.000000	0.000000	0.000000	0.000000	0.000000	0.000000	0.000000	0.000000	0.000000	8.072943	1.273181	-3.545120	7.946820	1.509762	-0.229273	-6.968282	-3.443100	-1.911798	0.000000	0.000000	0.000000	7.784047	-0.226868	-5.438818	4.294470	0.124783	3.324650	-2.999597	3.316734	1.693993	0.000000	0.000000	0.000000
	-11.2559	90.7129	84.0224	-7.638553	-1.700908	0.754017	0.000000	0.000000	0.000000	1.518268	0.924669	0.341647	5.042760	3.114179	1.045914	0.000000	0.000000	0.000000	0.000000	0.000000	0.000000	0.000000	0.000000	-3.814958	-2.485368	-8.416000	-15.278550	-11.200240	-15.226470	11.270250	0.000000	0.000000	0.000000	0.000000	0.000000	0.000000	0.000000	0.000000	0.000000	0.000000	0.000000	0.000000	0.000000	0.000000	0.000000	0.000000	0.000000	0.000000	0.000000	0.000000	0.000000	0.000000	0.000000	0.000000	0.000000	0.000000	0.000000	0.000000	0.000000	0.000000	0.000000	0.000000	0.000000	0.000000	0.000000	0.000000	0.000000	0.000000	0.000000	0.000000	0.000000	0.000000	0.000000	0.000000	0.000000	0.000000	0.000000	0.000000	0.000000	0.000000	2.461222	-1.670858	4.014980	9.676099	-11.759750	13.164260	-12.662950	0.000000	0.000000	0.000000	0.000000	0.000000	0.000000	0.000000	0.000000	0.000000	0.000000	0.000000	0.000000	0.000000	0.000000	0.000000	0.000000	0.000000	0.000000	0.000000	0.000000	0.000000	0.000000	0.000000	0.000000	0.000000	0.000000	0.000000	0.000000	0.000000	0.000000	0.000000	0.000000	0.000000	0.000000	0.000000	0.000000	0.000000	0.000000	0.000000	0.000000	0.000000	0.000000	0.000000	0.000000	0.000000	0.000000	0.000000	0.000000	9.241152	2.474960	-3.123349	7.652572	2.730580	-0.375477	-6.201975	-3.210088	-1.755947	0.000000	0.000000	0.000000	9.178430	-0.236643	-5.040435	4.417161	0.120901	3.133556	-3.201799	4.578867	2.350631	0.000000	0.000000	0.000000
	-11.3208	90.7699	84.1329	-7.960925	-2.240521	0.392005	0.000000	0.000000	0.000000	1.575143	1.097099	0.478265	5.220337	3.704825	1.477072	0.000000	0.000000	0.000000	0.000000	0.000000	0.000000	0.000000	0.000000	-3.866791	-3.208187	-8.582078	-15.583600	-11.048380	-15.334850	10.865350	0.000000	0.000000	0.000000	0.000000	0.000000	0.000000	0.000000	0.000000	0.000000	0.000000	0.000000	0.000000	0.000000	0.000000	0.000000	0.000000	0.000000	0.000000	0.000000	0.000000	0.000000	0.000000	0.000000	0.000000	0.000000	0.000000	0.000000	0.000000	0.000000	0.000000	0.000000	0.000000	0.000000	0.000000	0.000000	0.000000	0.000000	0.000000	0.000000	0.000000	0.000000	0.000000	0.000000	0.000000	0.000000	0.000000	0.000000	0.000000	0.000000	0.000000	2.383348	-2.286993	3.539376	9.392729	-11.341380	13.954620	-11.970420	0.000000	0.000000	0.000000	0.000000	0.000000	0.000000	0.000000	0.000000	0.000000	0.000000	0.000000	0.000000	0.000000	0.000000	0.000000	0.000000	0.000000	0.000000	0.000000	0.000000	0.000000	0.000000	0.000000	0.000000	0.000000	0.000000	0.000000	0.000000	0.000000	0.000000	0.000000	0.000000	0.000000	0.000000	0.000000	0.000000	0.000000	0.000000	0.000000	0.000000	0.000000	0.000000	0.000000	0.000000	0.000000	0.000000	0.000000	0.000000	9.585682	1.263960	-2.905610	7.238163	1.537586	-0.203373	-5.491086	-2.848023	-1.533099	0.000000	0.000000	0.000000	9.791856	-0.219694	-4.675456	4.530056	0.117327	2.968269	-3.350151	5.593205	2.881836	0.000000	0.000000	0.000000
	-11.3459	90.8390	84.0691	-7.897367	-2.507997	0.233850	0.000000	0.000000	0.000000	1.551957	1.220655	0.567599	5.132316	4.124878	1.764070	0.000000	0.000000	0.000000	0.000000	0.000000	0.000000	0.000000	0.000000	-3.901697	-3.918450	-8.654025	-15.879490	-10.920220	-15.585580	10.466290	0.000000	0.000000	0.000000	0.000000	0.000000	0.000000	0.000000	0.000000	0.000000	0.000000	0.000000	0.000000	0.000000	0.000000	0.000000	0.000000	0.000000	0.000000	0.000000	0.000000	0.000000	0.000000	0.000000	0.000000	0.000000	0.000000	0.000000	0.000000	0.000000	0.000000	0.000000	0.000000	0.000000	0.000000	0.000000	0.000000	0.000000	0.000000	0.000000	0.000000	0.000000	0.000000	0.000000	0.000000	0.000000	0.000000	0.000000	0.000000	0.000000	0.000000	2.324244	-2.897101	2.922352	9.171420	-10.937680	14.665970	-11.261890	0.000000	0.000000	0.000000	0.000000	0.000000	0.000000	0.000000	0.000000	0.000000	0.000000	0.000000	0.000000	0.000000	0.000000	0.000000	0.000000	0.000000	0.000000	0.000000	0.000000	0.000000	0.000000	0.000000	0.000000	0.000000	0.000000	0.000000	0.000000	0.000000	0.000000	0.000000	0.000000	0.000000	0.000000	0.000000	0.000000	0.000000	0.000000	0.000000	0.000000	0.000000	0.000000	0.000000	0.000000	0.000000	0.000000	0.000000	0.000000	9.338534	-0.763690	-2.892477	7.235505	-0.483331	0.059501	-4.810214	-2.325217	-1.233174	0.000000	0.000000	0.000000	9.833178	-0.208418	-4.528755	4.539562	0.118386	2.986100	-3.154016	6.331666	3.245841	0.000000	0.000000	0.000000
